<svg width="139" height="32" viewBox="0 0 139 32" fill="none" xmlns="http://www.w3.org/2000/svg">
<path d="M18.784 18.752H6.208V32H0.256V0.319999H6.208V13.472H18.784V0.319999H24.736V32H18.784V18.752ZM30.5841 0.319999H50.2401V5.624H36.5361V13.544H50.0481V18.68H36.5361V26.696H50.2401V32H30.5841V0.319999ZM56.0841 0.319999H75.7401V5.624H62.0361V13.544H75.5481V18.68H62.0361V26.696H75.7401V32H56.0841V0.319999ZM98.6241 14.96L110.384 32H102.584L94.5921 19.928L86.7681 32H79.5441L90.8001 14.96L80.6001 0.319999H88.2081L94.8321 10.328L101.36 0.319999H108.656L98.6241 14.96ZM121.921 20.6L111.097 0.319999H118.369L124.897 13.712L131.449 0.319999H138.673L127.921 20.6V32H121.921V20.6Z" fill="white"/>
</svg>